<svg version="1.1"
      xmlns="http://www.w3.org/2000/svg"
      xmlns:xlink="http://www.w3.org/1999/xlink"  id="snapshot-10255" width="250" height="250" viewBox="0 0 250 250"><desc>This image was made on Patterninja.com</desc><defs>
<!-- image 02690 -->
<g id="transformed-02690" data-image="02690" transform="translate(100, 100) rotate(320, 25, 25)"><g><svg version="1.1" width="50px" height="50px" viewBox="0 0 50 50"><g id="original-02690"><svg xmlns="http://www.w3.org/2000/svg" fill="#000000" viewBox="0 0 512 512" xmlns:xlink="http://www.w3.org/1999/xlink" version="1.1" preserveAspectRatio="xMidYMid meet">
  <path d="M283.826 0v146.021l50.087-60.103L384 146.021V0z" fill="rgba(51, 51, 51, 1)" stroke="none"/>
  <path d="M55.652 0c-9.217 0-16.696 7.473-16.696 16.696v478.609c0 9.223 7.479 16.696 16.696 16.696h50.087V0H55.652z" fill="rgba(51, 51, 51, 1)" stroke="none"/>
  <path d="M456.348 0h-38.956v146.021a33.392 33.392 0 0 1-59.044 21.376l-24.435-29.32-24.435 29.321a33.373 33.373 0 0 1-25.658 12.016 33.394 33.394 0 0 1-33.386-33.393V0H139.13v512h317.217c9.217 0 16.696-7.473 16.696-16.696V16.696C473.043 7.473 465.565 0 456.348 0zM221.935 311.652H355.5c9.217 0 16.696 7.473 16.696 16.696 0 9.223-7.479 16.696-16.696 16.696H221.935c-9.217 0-16.696-7.473-16.696-16.696.001-9.223 7.478-16.696 16.696-16.696zm166.957 100.174H188.544c-9.217 0-16.696-7.473-16.696-16.696s7.479-16.696 16.696-16.696h200.348c9.217 0 16.696 7.473 16.696 16.696s-7.479 16.696-16.696 16.696z" fill="rgba(51, 51, 51, 1)" stroke="none"/>
</svg>
</g></svg></g></g>
<!-- /image 02690 -->

<!-- image 67851 -->
<g id="transformed-67851" data-image="67851" transform="translate(225, 225) rotate(30, 25, 25)"><g><svg version="1.1" width="50px" height="50px" viewBox="0 0 50 50"><g id="original-67851"><svg xmlns="http://www.w3.org/2000/svg" fill="none" viewBox="0 0 24 24" xmlns:xlink="http://www.w3.org/1999/xlink" version="1.1" preserveAspectRatio="xMidYMid meet">
  <path d="M0 0h24v24H0z" fill="rgba(0, 0, 0, 0)" stroke="none"/>
  <path d="M12 6.91c-1.1-1.401-2.796-2.801-6.999-2.904A.491.491 0 0 0 4.5 4.5v12.097c0 .276.225.493.501.502 4.203.137 5.899 2 6.999 3.401m0-13.59c1.1-1.401 2.796-2.801 6.999-2.904a.487.487 0 0 1 .501.489v12.101a.51.51 0 0 1-.501.503c-4.203.137-5.899 2-6.999 3.401m0-13.59V20.5" stroke-linejoin="round" fill="rgba(0, 0, 0, 0)" stroke="rgba(51, 51, 51, 1)"/>
  <path d="M19.235 6H21.5a.5.5 0 0 1 .5.5v13.039c0 .405-.477.673-.846.51-.796-.354-2.122-.786-3.86-.786C14.353 19.263 12 21 12 21s-2.353-1.737-5.294-1.737c-1.738 0-3.064.432-3.86.785-.37.164-.846-.104-.846-.509V6.5a.5.5 0 0 1 .5-.5h2.265" stroke-linejoin="round" fill="rgba(0, 0, 0, 0)" stroke="rgba(51, 51, 51, 1)"/>
</svg>
</g></svg></g></g>
<!-- /image 67851 -->
</defs><rect x="0" y="0" width="250" height="250" fill="rgba(244, 244, 244, 1)"></rect><use xlink:href="#transformed-02690" transform="translate(-250, -250)"></use><use xlink:href="#transformed-02690" transform="translate(0, -250)"></use><use xlink:href="#transformed-02690" transform="translate(250, -250)"></use><use xlink:href="#transformed-02690" transform="translate(-250, 0)"></use><use xlink:href="#transformed-02690" transform="translate(0, 0)"></use><use xlink:href="#transformed-02690" transform="translate(250, 0)"></use><use xlink:href="#transformed-02690" transform="translate(-250, 250)"></use><use xlink:href="#transformed-02690" transform="translate(0, 250)"></use><use xlink:href="#transformed-02690" transform="translate(250, 250)"></use><use xlink:href="#transformed-67851" transform="translate(-250, -250)"></use><use xlink:href="#transformed-67851" transform="translate(0, -250)"></use><use xlink:href="#transformed-67851" transform="translate(250, -250)"></use><use xlink:href="#transformed-67851" transform="translate(-250, 0)"></use><use xlink:href="#transformed-67851" transform="translate(0, 0)"></use><use xlink:href="#transformed-67851" transform="translate(250, 0)"></use><use xlink:href="#transformed-67851" transform="translate(-250, 250)"></use><use xlink:href="#transformed-67851" transform="translate(0, 250)"></use><use xlink:href="#transformed-67851" transform="translate(250, 250)"></use></svg>